/* XPM */
static char *result[] = {
/* columns rows colors chars-per-pixel */
"64 64 6 1 ",
"  c white",
". c #EBF6FC",
"X c white",
"o c white",
"O c #E3F3F5",
"+ c #F1F7F8",
/* pixels */
"  .   ..  .        .       .          .      . .   .     . .  ..",
" .   ..  .  . .  .     .      .  .. .   . . . .  .  . .      ...",
".. .. .     ..     .        .  .      . . .     ..     . .   ...",
"       .      ..  .    ...          + .  . .. .   . ... ..  .   ",
"   .    .      .     .     .    ..    .   .                     ",
".   ..  O     .          . .             . .       + .         .",
"        .      .   .             . .            .       .       ",
"            O .      .      .   ..    .      .    +   .     .  .",
" .    .   . .      .     .                .  ....             . ",
" ..   O .  +.  . ...         ..   ..          . .O             .",
"                   .. .  .     . .+O   . ..O.         . .   .   ",
" . .  .    .  . O ..   ..   . .   .   .   .   .       .. .   .. ",
"+   .      . .                . .      .  . O O  .  .     .     ",
"    ..  ..           O .           .  .   .          +        . ",
"  ... .   . .      .    .        . .                   . .  .  .",
" ..        .      .       .  . ...           .  .    . .   .    ",
" .    ..         ..   . ........  .    ..  .  + .         .O. . ",
"        .    . .     .        . ...       .         .O    . .   ",
".            .  . . .   O..  .. .         . .  .O       .   ..  ",
"         .  ..    . ..      .. .  .   .       ..          . .   ",
" .. . ...   ...         .  .             . . . . ..+     .. ..  ",
"          .                      .      .        .   .    +   . ",
"   .   .       . . O    . ... . . .     O    .      . .         ",
"  .          .    .             .    .     .  .    .   . . .    ",
"   .        . .        .        .     ..     . .               .",
"         O       .   . .. .   .  .  . .    .       .   ..     ..",
"  .  ...   . .        .  ..             .       ..O   .     .   ",
"  O .  .    .  OO                       .                    .  ",
"     .. .. .    . .+ .O+. .            .      .       .   ..  . ",
"  O           .    . .  ..    . ....     .                      ",
" .    .                . +             .                 .  .   ",
"  .  . ...                ..        .       . ..  . .    .   .  ",
"  . .        ..    .  . ..   .      .    . O         ..    .  . ",
"  O      .   +  O          .        .   .       ...   . .    .  ",
"   .  . .   . .       .         .    .  .    .  .           .   ",
" .    +            . . .    O  .       .         . .      . ... ",
"     .  . . . .        .. .       .     .         ...         . ",
" ..        .          .    .     .     ..        .   . . .. . . ",
".      . .  .    .   .  .   ..        . .            .    .     ",
"   .         +  .         .  .       .O         .         .  .  ",
".     .   .          .  ...       .      .     ..       +    .  ",
"   ..  ..   .         .O. .  ... .     ..        ..   .   . .   ",
"    . ..       .      . ..           .     .. .  ....   . .     ",
"    O ..    . . +.   .      . ..   . . ..   .  .      . . . ..  ",
"  .   ..    ..  . . .      .  . ..   .          .+. .   .       ",
".      .. .   ..   .       .  .     . . ..      . ... ..  .   ..",
"O       .    .      ..    .  ...    . .   .   .     .     ..  ..",
" ..  .      . .   .   . .   .         .  .   .       .          ",
"  .  .  .    . .    .  .  ..       ..  .       .          .   . ",
"  .   . .O .         .. .      .       .    O             .    .",
"        . ..    .  .       .  .    .       .   ..     .        .",
"  . ..      ..   . .       .    .         .    .                ",
"   ..O   .       .. .    .   .   .                  .           ",
"       .O .   .      .    .             .. . .   .   .      O  .",
"O.   ..  ...   +   .      ..   .   . .  .     .    . . .        ",
"    .            .    . .      ..  ....    .          .    .O   ",
" .          .. .       ... . .      .         .   .          ++ ",
" . .   . . .         +  ...       .  . .  .   .   .    .  .     ",
".       .    .  .     .O    .          . . .         .  .   . . ",
"   ..   ..    . .       .             +      .  .   .   .   . . ",
"         +.   .           . . O     . ..              .   . .  .",
"   .+..  .    .        .    .   .  .   .  . . .   .  . .  .    .",
"     ...   .           +.    ..    .            .  . .   .     .",
".   .     .         .+        O               O  O     . O      "
};
