/* XPM */
static char *result[] = {
/* columns rows colors chars-per-pixel */
"64 64 138 2 ",
"   c #2B3E3F",
".  c #3F3F39",
"X  c #453521",
"o  c #4E3921",
"O  c #473B2A",
"+  c #483E2F",
"@  c #513C24",
"#  c #433D32",
"$  c #574025",
"%  c #594226",
"&  c #53412E",
"*  c #5E4629",
"=  c #4B4235",
"-  c #40433E",
";  c #5F4936",
":  c #59493B",
">  c #604729",
",  c #634A2B",
"<  c #694F2D",
"1  c #6C512F",
"2  c #644E32",
"3  c #675237",
"4  c #6E5431",
"5  c #65533B",
"6  c #68543B",
"7  c #725733",
"8  c #755833",
"9  c #785C3C",
"0  c #324547",
"q  c #394747",
"w  c #314648",
"e  c #3D4748",
"r  c #344A4C",
"t  c #3D4B4A",
"y  c #3C5051",
"u  c #474A43",
"i  c #4C4E47",
"p  c #464D48",
"a  c #5B5243",
"s  c #495D5E",
"d  c #555A57",
"f  c #7D6347",
"g  c #77644D",
"h  c #7E6549",
"j  c #7C684E",
"k  c #68675F",
"l  c #796A53",
"z  c #5A6F70",
"x  c #7E7463",
"c  c #76756B",
"v  c #7A756A",
"b  c #747973",
"n  c #80715C",
"m  c #7D806E",
"M  c #8A857D",
"N  c #8B8A84",
"B  c #9A8F82",
"V  c #85928D",
"C  c #919086",
"Z  c #829F97",
"A  c #9E9991",
"S  c #8AA197",
"D  c #83A19A",
"F  c #8AA098",
"G  c #9AA99F",
"H  c #A2A79D",
"J  c #8EAAA4",
"K  c #93A8A1",
"L  c #9FABA6",
"P  c #9AACAA",
"I  c #8FBAAE",
"U  c #9FB3AD",
"Y  c #90BAAF",
"T  c #8CBAB2",
"R  c #90BBB0",
"E  c #92BEB8",
"W  c #98BFB9",
"Q  c #A8AFA7",
"!  c #A1B4AD",
"~  c #ADB7B5",
"^  c #A4BDBA",
"/  c #96C0BB",
"(  c #9BC1BB",
")  c #A3C3BC",
"_  c #AAC4BF",
"`  c #9DC4C2",
"'  c #A2C6C2",
"]  c #ACC5C2",
"[  c #A6C9C6",
"{  c #ABCAC4",
"}  c #A6CAC8",
"|  c #ACCDCC",
" . c #B4C8C2",
".. c #BAC9C4",
"X. c #B1CECD",
"o. c #BACFCE",
"O. c #AFD0CF",
"+. c #B3D1CE",
"@. c #BBD4CE",
"#. c #AFCFD0",
"$. c #AFD0D0",
"%. c #B5D3D3",
"&. c #BAD5D4",
"*. c #B6D8D2",
"=. c #BAD9D6",
"-. c #B9D7D9",
";. c #BDD9DC",
":. c #C5CFC9",
">. c #C1D7D2",
",. c #C3D9D6",
"<. c #C3DBDB",
"1. c #CADEDD",
"2. c #D0DEDB",
"3. c #C6E0DD",
"4. c #CCE1DE",
"5. c #D2E1DE",
"6. c #C6DEE0",
"7. c #C9DFE1",
"8. c #CDE2E1",
"9. c #D3E4E3",
"0. c #D9E7E5",
"q. c #D6E8E4",
"w. c #DCE9E7",
"e. c #D6E6E8",
"r. c #DDEBE9",
"t. c #E0EAE7",
"y. c #E3EEEC",
"u. c #E8EFED",
"i. c #E5F1EE",
"p. c #E8F0EF",
"a. c #E5EFF0",
"s. c #E7F1F1",
"d. c #EBF4F2",
"f. c #F1F6F5",
"g. c #F2F8F7",
"h. c #F5FAF9",
"j. c #FDFEFE",
"k. c None",
/* pixels */
"k.k.k.k.k.k.k.k.k.i.h.d.y.k.k.k.k.k.k.k.k.i.h.d.i.k.k.k.k.k.k.k.k.k.k.i.h.d.y.k.k.k.k.k.4.i.h.d.y.k.k.k.k.k.k.k.k.k.i.k.k.k.k.k.",
"k.y.k.k.k.k.k.k.8.0.w.h.g.p.k.k.k.i.k.k.8.0.t.g.g.p.k.k.k.i.k.k.k.k.9.0.r.g.h.p.k.k.i.k.4.w.t.g.g.p.k.k.q.r.y.k.k.i.h.d.r.k.k.k.",
"i.h.d.r.k.k.k.k.4.+.+.w.j.h.k.k.i.g.d.r.5.%.+.w.j.h.k.k.i.h.d.r.k.k.4.%.+.w.j.h.r.i.g.d.q.=.+.w.j.h.j.4.i.h.d.r.q.w.r.g.g.d.k.k.",
"0.r.h.h.d.k.k.i.4.=.%.9.j.j.k.q.0.t.g.h.r.=.+.9.j.j.k.q.0.t.h.h.d.i.4.%.+.9.j.j.w.0.t.h.g.q.%.9.j.j.h.q.w.t.g.h.i.,.+.w.j.h.k.k.",
"@.+.w.j.h.k.k.d.<.;.&.y.j.j.d.5.%.X.w.j.d.e.&.y.j.j.d.4.%.+.w.j.h.f.<.;.%.y.j.j.9.+.X.w.j.d.8.y.j.j.s.4.%.+.w.j.h.y.%.0.j.j.k.q.",
"%.O.0.j.j.k.d.w.%.;.<.d.j.j.s.4.-.$.9.j.j.r.<.d.j.j.p.8.%.+.0.j.j.d.-.;.<.f.j.f.7.-.%.9.j.j.r.f.j.j.s.8.%.+.0.j.j.h.1.y.j.j.d.4.",
";.%.y.j.j.d.y.+.-.;.8.j.j.h.d.<.;.-.y.j.j.r.9.j.j.h.d.<.;.&.y.j.j.r.<.-.8.j.g.d.<.;.&.y.j.j.i.h.j.d.d.,.;.%.y.j.j.d.8.d.j.j.i.4.",
";.<.f.j.j.d.,.| ;.%.p.j.j.g.r.%.;.,.f.j.j.d.r.j.j.g.r.%.;.<.d.j.j.d.4.%.y.j.g.r.-.;.,.f.j.j.d.d.j.d.w.%.;.<.f.j.j.d.q.h.j.g.d.<.",
"-.9.j.j.j.j.w.&.%.0.j.j.j.p.%.&.-.9.h.j.j.j.d.h.j.u.%.-.-.9.j.j.j.j.r.w.j.j.d.+.-.=.9.h.j.j.j.d.h.t.%.-.-.9.j.j.j.j.i.d.j.g.w.%.",
"%.i.j.j.j.j.h.8.1.h.j.j.j.@.| ;.%.u.j.j.j.j.h.h.h.@.| -.%.i.j.j.j.j.h.g.j.h.@.| ;.%.s.j.j.j.j.j.f.X.| -.%.i.j.j.j.j.j.d.j.d.%.-.",
"0.j.j.j.j.j.j.d.1.e.h.j.u.) %.%.w.j.j.j.j.j.j.j.u.) %.%.0.j.j.j.j.j.j.g.h.u.` %.%.w.j.j.j.j.j.j.f.@.%.%.0.j.j.j.j.j.j.j.h.@.| =.",
"h.j.j.j.j.j.j.s.7.<.a.h.d.%.| ,.h.j.j.j.j.j.j.j.f.&.| <.h.j.j.j.j.j.j.d.a.d.@.| <.h.j.j.j.j.j.j.f.,.X.<.h.j.j.j.j.j.j.j.y.' %.%.",
"e.h.j.j.j.j.j.r.6.6.a.r.8.&.| &.r.h.j.j.j.j.h.r.1.%.#.&.e.h.j.j.j.j.j.q.q.8.&.$.&.0.h.j.j.j.j.j.y.=.+.&.e.h.j.j.j.j.j.d.d.%.| <.",
"<.y.j.j.j.j.j.i.6.y.1.+.-.;.;.;.;.r.h.j.j.h.1.+.-.<.;.;.;.y.j.j.j.j.j.,.+.-.;.;.;.<.a.h.j.j.j.j.u.<.;.;.;.y.j.j.j.j.h.0.1.&.X.&.",
"6.s.h.j.j.j.j.j.r.8.| %.;.;.;.;.6.s.j.j.h.9.| %.;.;.;.;.<.s.j.j.j.h.9.O.%.;.;.;.;.6.a.j.j.j.j.j.j.9.6.;.<.s.j.j.j.j.2.%.;.;.-.<.",
"a.j.j.j.j.j.j.j.d.4.%.-.-.;.;.6.y.j.j.j.d.,.%.-.;.;.;.<.y.j.j.j.j.d.,.%.-.-.;.;.<.a.h.j.j.j.j.j.j.a.6.;.y.j.j.j.g.5.| %.;.;.;.;.",
"j.j.j.j.j.j.j.j.g.1.-.-.%.-.&.r.j.j.j.j.i.%.-.-.%.-.-.t.j.j.j.j.j.p.&.-.;.%.-.&.r.j.j.j.j.j.j.j.j.d.1.r.j.j.j.j.d.,.%.-.-.;.;.;.",
"j.h.g.g.g.j.j.j.g.q.+.%.-.%.1.h.j.h.g.g.g.,.| %.-.%.<.h.j.h.g.g.g.h.,.| #.-.%.1.h.j.j.g.g.g.j.j.j.h.q.h.j.j.g.g.i.%.-.-.%.-.-.r.",
"j.j.g.y.w.9.u.j.j.d.=.' -.%.d.j.j.j.g.y.q.4.@.` -.&.d.j.j.j.g.y.w.5.0.&.' -.&.u.j.j.j.f.y.q.9.t.j.j.d.j.j.j.g.y.q.@.O.+.-.%.1.h.",
"j.j.j.g.4.%.&.y.j.y.0.| %.&.d.j.j.j.j.g.4.4.5.| %.&.d.j.j.j.j.g.4.%.7.9.| %.-.d.j.j.j.j.f.4.&.=.y.j.d.h.j.j.j.h.4.%.+.` -.%.d.j.",
"h.j.j.h.8.;.<.i.j.d.t.X.%.%.,.r.h.j.j.g.9.r.0.| %.%.,.e.h.j.j.h.9.;.r.r.X.&.%.,.w.h.j.j.h.9.;.;.s.j.i.r.h.j.j.h.9.9.5.| %.&.f.j.",
"9.j.j.j.s.r.s.h.j.h.y.+.-.-.-.%.9.j.j.j.s.s.9.%.-.-.;.%.9.j.j.j.s.r.d.9.X.-.-.-.%.9.j.j.j.s.r.s.h.j.f.7.9.j.j.h.s.d.w.X.%.%.,.w.",
"&.f.j.j.h.j.j.j.j.j.d.4.O.-.;.-.&.f.j.j.j.j.f.1.| -.,.-.&.f.j.j.j.j.j.f.1.X.-.;.&.&.f.j.j.h.j.j.j.j.j.r.,.f.j.j.h.j.0.X.-.-.-.%.",
"9.h.j.j.j.j.j.j.j.j.d.y.' | %.O.5.h.j.j.j.j.j.t.' | -.X.5.h.j.j.j.j.j.j.r.' | &.X.9.h.j.j.j.j.j.j.j.j.i.9.h.j.j.j.j.f.1.| -.;.-.",
"j.j.j.j.j.j.j.h.j.j.j.9.$.-.%.9.j.j.j.j.j.j.g.,.| -.#.9.j.j.j.j.j.j.j.f.,.| -.%.9.j.j.j.j.j.j.j.h.j.j.h.h.j.j.j.j.j.j.t.' | -.| ",
"j.j.j.j.g.j.h.s.h.j.h.8.;.-.*.s.j.j.j.j.h.s.<.%.;.-.%.d.j.j.j.j.g.j.d.<.%.;.-.%.i.j.j.j.j.g.j.h.d.h.j.j.j.j.j.j.h.j.h.&.| -.%.9.",
"j.j.j.f.d.j.a.9.d.j.d.8.;.+.q.g.j.j.j.f.a.<.;.;.-.+.q.f.j.j.j.g.d.d.<.;.;.;.O.q.g.j.j.j.g.d.j.i.q.d.j.g.j.j.j.f.f.d.<.%.-.-.%.d.",
"h.j.g.d.d.h.,.&.0.j.r.6.$.,.h.h.h.j.g.d.9.;.;.;.%.<.h.h.h.j.h.d.d.9.-.;.;.$.,.h.h.h.j.h.d.f.g.,.%.9.j.d.g.j.h.f.d.<.;.;.;.O.q.f.",
"r.r.i.h.g.7.-.%.,.h.f.8.%.&.s.d.r.r.i.d.=.=.;.;.#.&.d.d.r.r.s.h.s.-.;.;.;.$.&.d.d.r.r.s.h.g.8.-.%.1.h.g.y.r.i.h.9.-.;.;.$.,.h.j.",
"y.i.f.j.t.-.;.;.8.h.j.d.8.$.&.e.y.i.g.9.%.;.<.;.%.| =.e.r.i.d.j.4.%.;.;.;.-.| &.9.y.y.f.j.r.%.;.-.8.h.j.f.i.g.d.-.;.;.;.$.=.i.d.",
"3.w.d.g.5.| %.<.a.j.j.j.r.6.;.;.3.e.p.4.%.;.;.-.;.;.;.;.3.r.s.d.4.+.;.;.;.;.;.;.;.6.0.s.g.5.| %.,.s.j.j.j.d.d.9.%.=.;.;.-.#.&.0.",
"=.%.%.<.7.<.9.y.a.h.j.h.8.;.;.;.=.=.w.9.| -.;.;.;.;.;.;.-.%.=.r.9.| -.;.;.;.;.;.;.;.%.-.<.6.<.0.y.i.h.j.g.8.<.1.%.;.;.;.;.;.=.-.",
";.;.;.;.,.d.j.d.i.f.j.f.4.;.;.;.;.;.0.r.%.-.-.-.-.-.;.;.;.;.;.e.w.%.-.-.-.-.;.;.;.;.-.;.;.<.s.j.d.i.f.j.f.8.r.9.| -.;.;.;.;.;.;.",
";.;.;.;.<.g.j.j.h.j.j.j.3.%.-.=.;.;.<.e.7.%.[ ' | %.-.-.;.;.;.<.w.9.%.' ` | %.-.;.;.;.;.;.1.f.j.j.j.j.j.h.8.q.r.%.-.-.-.-.;.;.;.",
"$.%.-.;.9.r.d.y.i.p.j.p.*.} ) } #.%.-.<.9.%.` ' #.[ ' } #.%.-.<.8.w.&.` ' #.[ ` } #.%.&.<.8.r.d.u.u.d.j.d.*.-.r.8.%.} ` | %.-.;.",
"( | 0.s.d.d.1.%.{ +.r.f.3.,.0.>.W | 9.s.d.,.%.-.%.,.0.>.) } 9.d.d.d.,.%.-.%.,.w.>.) { 9.s.d.d.8.+.[ +.y.g.,.4.s.r.%.' ' O.} ` } ",
"u.d.f.d.g.w.%.;.-.%.&.f.r.i.j.g.u.d.f.d.g.<.&.-.%.d.j.h.u.d.f.d.g.d.<.%.;.%.d.j.g.p.p.g.d.d.w.%.-.-.+.*.g.i.d.f.g.,.%.-.%.,.w.&.",
"j.j.g.d.i.1.%.=.=.%.+.i.j.d.j.j.j.j.g.f.w.' +.-.,.h.j.j.j.h.h.d.d.0.' #.%.,.h.j.j.j.j.g.d.i.1.%.;.;.%.+.i.j.d.d.g.<.%.-.%.d.j.g.",
"j.j.j.j.j.d.@.%.%.| 4.i.j.g.j.j.j.j.j.h.>.W -.;.7.g.j.j.j.j.j.j.j.>./ -.;.8.h.j.j.j.j.j.j.j.f.&.%.%.| 4.i.j.h.j.r.' +.-.,.g.j.j.",
"j.j.j.j.j.j.d.5.+.@.i.h.j.j.g.j.j.j.j.f.&.' -.;.<.y.j.j.j.j.h.j.f.&.' -.;.<.r.j.j.j.j.j.j.j.j.d.8.+.@.u.g.j.j.g.>.W -.=.4.g.j.j.",
"j.j.j.j.j.j.j.j.,.| 9.h.j.f.r.j.j.j.h.e.-.%.;.;.;.&.s.j.j.j.j.h.0.&.%.;.;.;.&.y.j.j.j.j.j.j.j.j.j.,.X.9.h.j.h.d.&.[ -.;.<.y.j.j.",
"j.j.j.j.j.j.j.j.y.9.y.g.j.d.3.g.j.h.y.<.;.;.;.;.;.-.1.h.j.j.h.y.,.;.;.;.;.;.-.7.h.j.j.j.j.j.j.j.j.r.9.a.h.j.d.e.&.+.;.;.;.-.u.j.",
"j.j.j.j.j.j.j.j.j.h.h.j.j.r.-.i.h.i.r.<.;.-.-.;.;.;.;.a.j.h.s.e.;.;.-.-.;.;.;.;.s.j.j.j.j.j.j.j.j.h.h.h.j.h.r.6.;.;.;.;.;.-.7.h.",
"y.h.j.f.f.j.j.j.j.j.j.j.j.i.8.8.d.w.,.-.;.-.;.;.;.<.-.<.d.g.w.,.6.;.-.;.;.;.;.;.<.s.h.h.f.f.j.j.j.j.j.j.h.d.e.<.;.;.-.;.;.;.<.y.",
"&.6.7.,.,.y.j.j.j.j.j.h.j.j.h.e.t.1.[ -.;.;.;.;.;.;.;.%.<.y.1.[ -.;.;.;.;.;.;.;.%.&.6.6.,.,.u.j.j.j.j.j.h.w.,.;.;.-.-.;.;.;.;.<.",
";.-.;.%.( 5.j.d.e.d.y.y.f.j.j.r.e.9.o.X.-.;.;.-.;.;.-.;.;.8.9.%.| -.;.;.-.;.;.-.;.<.-.;.%.W 5.h.d.r.f.y.d.1.[ &.;.;.;.;.;.;.;.%.",
";.-.-.%.%.9.0.&.+.%.+.-.8.a.r.6.-.8.t.1.| %.;.;.;.;.;.;.-.-.8.0.1.| %.;.;.;.;.;.;.;.-.;.-.X.9.w.&.X.X.%.5.0.X.X.-.;.;.-.;.;.-.;.",
";.;.;.-.<.<.-.-.%.} -.;.;.8.6.;.;.;.7.s.<./ } -.;.;.;.;.;.=.;.8.d.,.W } -.;.;.;.;.;.;.;.-.<.<.-.-.%.| %.;.7.y.1.| #.;.;.;.-.;.;.",
";.;.;.-.;.;.;.-.#.%.-.;.6.<.%.-.;.;.;.7.9.&.( ' $.-.%.-.;.;.;.;.8.8.@.W ` %.-.%.-.;.;.;.-.;.;.;.-.#.%.;.;.6.e.s.<.( } -.;.;.;.;.",
"&.;.;.;.;.;.;.-.-.;.6.6.#.E T ` -.=.;.;.%.1.4.) T T T ` %.;.;.;.;.*.1.1.' T T T / -.;.;.<.;.;.;.-.&.;.;.7.6.;.7.9.@.( ` %.%.%.-.",
"[ -.;.;.;.;.;.-.%.-.<.e.] Y T W } -.;.;.-.-.q.9.{ I T W } -.;.;.;.;.-.9.9.{ R R W [ ;.;.;.;.;.;.-.&.=.<.%.-.;.=.%.<.4._ T T T ` ",
"_ [ #.-.;.;.-.#.o.~ n H H Z Z P ) ' +.%.;.;.;.,.>._ J U ^ ' %.-.;.;.&.@.<...K F U ^ ' +.-.;.;.&.+.&.&. .) [ +.-.;.;.9.5.{ T I / ",
"l v K ] X.{ ^ P N a % 8 7 i r : l n P _ X.| ^ Q B d r : l m K ] +.| ^ L M h 8 # : l b K ] X. .^ Q N e 2 l v K ] @.%.&.1.:.K D ! ",
"% > 2 n b z s y o o 4 8 7 i q @ % > 2 x v k g 9 7 p q @ % * , n b z a + 4 8 7 u @ % * < n x x l 9 a - @ % * 2 n C V c h 8 p r : ",
"o % 7 8 p r r r @ > 8 8 7 t r o @ % 8 7 @ , 8 8 7 t r o o % 7 8 i r @ , 8 8 8 e @ @ $ 8 8 , 8 8 7 i q @ o % 8 8 , o 4 7 8 p q $ ",
"o 7 8 7 p r e t @ * 8 $ 7 p r @ o 4 8 7 % > 8 $ 7 p r @ o 7 8 7 p r @ > 8 $ 7 p o o 7 8 8 , 8 % 7 a r @ o 4 8 8 , * 8 4 8 t r o ",
"* 8 8 8 p r r q @ * 7 o 7 t r @ > 8 8 7 @ * 7 o 4 t r @ * 8 8 7 t r @ , 7 o 4 t @ * 8 8 7 , 4 o 8 i r o > 8 8 8 * * 7 % 7 p r @ ",
", 8 $ 6 p r r r @ @ < o 4 i r @ * 7 $ 7 % $ 4 o 4 i r @ * 8 $ 8 p r @ @ 4 o 4 i @ > 8 $ 4 * 1 o 4 a r @ * 8 $ 8 , * 7 o 7 t r @ ",
"* 7 o 4 t r r = @ 7 < o > 3 0 @ * 7 o 7 $ 4 < o 2 6 r o * 7 o 4 t = @ 4 < o , 6 @ > 4 o 4 4 1 o , 8 r o * 7 o 8 * @ 1 o 4 i r @ ",
"@ 4 o 4 i r r o o 7 @ @ , 7 O @ $ 1 o 1 % 8 $ o , 7 = @ @ 4 o 4 # o o 7 $ o , 7 @ $ 1 o 4 8 $ o , 8 < @ $ 1 o 1 , 4 1 o , 6 w o ",
"4 1 o , 3   o o o , $ o o > @ @ 1 1 o , 4 , % o o , $ o 4 < o , < o o , % o o % @ 1 < o , 7 $ o o > $ o 1 1 o , 8 8 $ o , 7 + @ ",
"8 $ o , 7 X o * o 8 , @ > @ o o 8 $ o , 7 8 , @ * o o o 8 $ o , 7 < o 8 , @ * o o 8 $ o , 8 1 @ > @ o o 8 $ o , 8 7 $ o o * @ o ",
", % o o > * k.k.k.k.k.k.k.o o o , $ o o * k.k.k.k.o o o , $ o o > k.k.k.k.k.o o o , $ o o * k.k.k.o o o , $ o o > 8 , @ * @ o o ",
"8 , o * o 4 k.k.k.k.k.k.k.o % o 8 , @ * @ 1 k.k.k.o % o 8 , @ * o 4 k.k.k.k.o * o 8 , @ * o 1 k.k.o * o 8 , @ * @ 1 k.k.k.o o o "
};
