/* XPM */
static char *result[] = {
/* columns rows colors chars-per-pixel */
"64 64 71 1 ",
"  c #4E3921",
". c #513C23",
"X c #574025",
"o c #594226",
"O c #5E4629",
"+ c #5F4936",
"@ c #604729",
"# c #634A2C",
"$ c #694F2D",
"% c #6D522F",
"& c #6E5330",
"* c #725632",
"= c #755833",
"- c #796A53",
"; c #80715C",
": c #7D806E",
"> c #97978E",
", c #92A8A1",
"< c #8FBAAF",
"1 c #8BBAB3",
"2 c #98BFB9",
"3 c #9EC1B6",
"4 c #96C0BB",
"5 c #9BC2BC",
"6 c #A3C4BE",
"7 c #AEC3BB",
"8 c #9EC4C2",
"9 c #A2C6C3",
"0 c #ACC5C2",
"q c #A6C9C6",
"w c #ABCAC4",
"e c #A7CAC9",
"r c #ACCDCC",
"t c #B0CFCC",
"y c #B4D1CE",
"u c #BCD4CF",
"i c #AFCFD0",
"p c #AFD0D0",
"a c #B5D3D4",
"s c #BAD5D4",
"d c #BDDCD5",
"f c #B9D7D9",
"g c #BDD9DC",
"h c #C1D6D2",
"j c #C2D9D6",
"k c #C3DBDB",
"l c #CADEDD",
"z c #C7E2DB",
"x c #CBE1DE",
"c c #D2E2DE",
"v c #C5DDE0",
"b c #C9DFE0",
"n c #CDE2E1",
"m c #D4E4E2",
"M c #D9E7E5",
"N c #D6E9E4",
"B c #DBE9E6",
"V c #DDEBE9",
"C c #E0EAE7",
"Z c #E3EEEC",
"A c #E8EFED",
"S c #E5F1EE",
"D c #E8F0EF",
"F c #E5EFF0",
"G c #E7F1F1",
"H c #EBF4F2",
"J c #F1F6F5",
"K c #F2F8F7",
"L c #F5FAF9",
"P c #FDFEFE",
"I c None",
/* pixels */
"IIIIIIIIIIIIIIIIIIIIIIIIIIIIIIIIIIIIIIIIIIIIIIIIIIIIIIIIIIIIIIII",
"IIIIIIIIIIIIIIIIIIIIIIIIIIIIIIISIIIIIIIIIIIIIIIIIIIIIIIIIIIIIIII",
"IIIIIIIIIIIIIIIIIIIIIIIIIIIIIIZLHVIIIIIIIIIIIIIIIIIIIIIIIIIIIIII",
"IIIIIIIIIIIIIIIIIIIIIIIIIIIIIxMZLLHIIIIIIIIIIIIIIIIIIIIIIIIIIIII",
"IIIIIIIIIIIIIIIIIIIIIIIIIIIIIxatVPLIIIIIIIIIIIIIIIIIIIIIIIIIIIII",
"IIIIIIIIIIIIIIIIIIIIIIIIIIIISnaamPPIIIIIIIIIIIIIIIIIIIIIIIIIIIII",
"IIIIIIIIIIIIIIIIIIIIIIIIIIIIHjgsZPPHIIIIIIIIIIIIIIIIIIIIIIIIIIII",
"IIIIIIIIIIIIIIIIIIIIIIIIIIISVagkJPPJIIIIIIIIIIIIIIIIIIIIIIIIIIII",
"IIIIIIIIIIIIIIIIIIIIIIIIIIIVyfgnPPPPSIIIIIIIIIIIIIIIIIIIIIIIIIII",
"IIIIIIIIIIIIIIIIIIIIIIIIIIItrgaFPPPPPIIIIIIIIIIIIIIIIIIIIIIIIIII",
"IIIIIIIIIIIIIIIIIIIIIIIIIII6iaMPPPPPPPIIIIIIIIIIIIIIIIIIIIIIIIII",
"IIIIIIIIIIIIIIIIIIIIIIIIIIZsrjLPPPPPPLIIIIIIIIIIIIIIIIIIIIIIIIII",
"IIIIIIIIIIIIIIIIIIIIIIIIIzbsiaMKPPPPPHIIIIIIIIIIIIIIIIIIIIIIIIII",
"IIIIIIIIIIIIIIIIIIIIIIIIyyggggvZPPPPPHIIIIIIIIIIIIIIIIIIIIIIIIII",
"IIIIIIIIIIIIIIIIIIIIIIIdragggglFPPPPPPSIIIIIIIIIIIIIIIIIIIIIIIII",
"IIIIIIIIIIIIIIIIIIIIIIIjaffgggFPPPPPPPHIIIIIIIIIIIIIIIIIIIIIIIII",
"IIIIIIIIIIIIIIIIIIIIIIIaffaffVPPPPPPPPKIIIIIIIIIIIIIIIIIIIIIIIII",
"IIIIIIIIIIIIIIIIIIIIIIIrrtfsjPPPKKLLPPLIIIIIIIIIIIIIIIIIIIIIIIII",
"IIIIIIIIIIIIIIIIIIIIIIIIy9ssFPPPJZNmZPPHIIIIIIIIIIIIIIIIIIIIIIII",
"IIIIIIIIIIIIIIIIIIIIIIIImrasJPPPPJnssAPHIIIIIIIIIIIIIIIIIIIIIIII",
"IIIIIIIIIIIIIIIIIIIIIIIIVtsajMPPPLmgkSPHIIIIIIIIIIIIIIIIIIIIIIII",
"IIIIIIIIIIIIIIIIIIIIIIIIctfffacPPPGVGKPLIIIIIIIIIIIIIIIIIIIIIIII",
"IIIIIIIIIIIIIIIIIIIIIIIIHlrfgfsHPPPPPPPPHIIIIIIIIIIIIIIIIIIIIIII",
"IIIIIIIIIIIIIIIIIIIIIIIIPV9isrmLPPPPPPPPHIIIIIIIIIIIIIIIIIIIIIII",
"IIIIIIIIIIIIIIIIIIIIIIIPJsrfamPPPPPPPLPPLIIIIIIIIIIIIIIIIIIIIIII",
"IIIIIIIIIIIIIIIIIIIIIIIGkagfaHPPPPJPLSLPPIIIIIIIIIIIIIIIIIIIIIII",
"IIIIIIIIIIIIIIIIIIIIIIFkgggyNKPPPKHPSNHPKIIIIIIIIIIIIIIIIIIIIIII",
"IIIIIIIIIIIIIIIIIIIIIIlfggikLLLPKHJKjamPHIIIIIIIIIIIIIIIIIIIIIII",
"IIIIIIIIIIIIIIIIIIIIIIsgggpsDHVVGJJmfakPKIIIIIIIIIIIIIIIIIIIIIII",
"IIIIIIIIIIIIIIIIIIIIIdagggfpsNVSJPVaggxLPPIIIIIIIIIIIIIIIIIIIIII",
"IIIIIIIIIIIIIIIIIIIIIxyggggggglMHJmrakZPPPIIIIIIIIIIIIIIIIIIIIII",
"IIIIIIIIIIIIIIIIIIIIHmrfgggggggafkbjmZZPPLIIIIIIIIIIIIIIIIIIIIII",
"IIIIIIIIIIIIIIIIIIIIIZasfafgggggggkGPHSJPKIIIIIIIIIIIIIIIIIIIIII",
"IIIIIIIIIIIIIIIIIIIIIIxse8raffggggbKPPPPPPBIIIIIIIIIIIIIIIIIIIII",
"IIIIIIIIIIIIIIIIIIIIIIIa89re9eiafknVHAZHPSdIIIIIIIIIIIIIIIIIIIII",
"IIIIIIIIIIIIIIIIIIIIIIIkagsjMs60mFHHltqtSKxIIIIIIIIIIIIIIIIIIIII",
"IIIIIIIIIIIIIIIIIIIIIIPjagaHPKAHJJHBsfgidJSIIIIIIIIIIIIIIIIIIIII",
"IIIIIIIIIIIIIIIIIIIIIIM6iakLPPPPKHDlaggaySPIIIIIIIIIIIIIIIIIIIII",
"IIIIIIIIIIIIIIIIIIIIILh4fglJPPPPPPPJuaarxSPKIIIIIIIIIIIIIIIIIIII",
"IIIIIIIIIIIIIIIIIIIIIHs9fgkZPPPPPPPPHcysZLPPIIIIIIIIIIIIIIIIIIII",
"IIIIIIIIIIIIIIIIIIIIHVfagggsFPPPPPPPPPjtmLPLIIIIIIIIIIIIIIIIIIII",
"IIIIIIIIIIIIIIIIIIIIVkgggggfbJPPPPPPPPZmZJPGdIIIIIIIIIIIIIIIIIII",
"IIIIIIIIIIIIIIIIIIIZVkgffgggkFPPPPPPPPPLPPPSIIIIIIIIIIIIIIIIIIII",
"IIIIIIIIIIIIIIIIIIHVggggfggggjFPPJJPPPPPPPPHNIIIIIIIIIIIIIIIIIII",
"IIIIIIIIIIIIIIIIIIJcqfgggggggaallksAPPPPPPPPPGIIIIIIIIIIIIIIIIII",
"IIIIIIIIIIIIIIIIIIIMttfggggggggffa8cPABHZVJPPHIIIIIIIIIIIIIIIIII",
"IIIIIIIIIIIIIIIIIIIIAlragggfggggfaaNMsastsnFGIIIIIIIIIIIIIIIIIII",
"IIIIIIIIIIIIIIIIIIIIIPj2efgggggggakkffiraggnIIIIIIIIIIIIIIIIIIII",
"IIIIIIIIIIIIIIIIIIIIIIBu49aaafggggggffaaggvnIIIIIIIIIIIIIIIIIIII",
"IIIIIIIIIIIIIIIIIIIIIIIzx61115aggggggfaggnIIIIIIIIIIIIIIIIIIIIII",
"IIIIIIIIIIIIIIIIIIIIIIIISMw<<4qfgggggfagnIIIIIIIIIIIIIIIIIIIIIII",
"IIIIIIIIIIIIIIIIIIIIIIIIIIII377qifggfrjmIIIIIIIIIIIIIIIIIIIIIIII",
"IIIIIIIIIIIIIIIIIIIIIIIIIIIII+-:,0aaakIIIIIIIIIIIIIIIIIIIIIIIIII",
"IIIIIIIIIIIIIIIIIIIIIIIIIIIII.XO#;>IIIIIIIIIIIIIIIIIIIIIIIIIIIII",
"IIIIIIIIIIIIIIIIIIIIIIIIIIIII. X==IIIIIIIIIIIIIIIIIIIIIIIIIIIIII",
"IIIIIIIIIIIIIIIIIIIIIIIIIIIII. *==IIIIIIIIIIIIIIIIIIIIIIIIIIIIII",
"IIIIIIIIIIIIIIIIIIIIIIIIIIIII.#===IIIIIIIIIIIIIIIIIIIIIIIIIIIIII",
"IIIIIIIIIIIIIIIIIIIIIIIIIIIII.O=X=IIIIIIIIIIIIIIIIIIIIIIIIIIIIII",
"IIIIIIIIIIIIIIIIIIIIIIIIIIIII.@* =IIIIIIIIIIIIIIIIIIIIIIIIIIIIII",
"IIIIIIIIIIIIIIIIIIIIIIIIIIIII..% &IIIIIIIIIIIIIIIIIIIIIIIIIIIIII",
"IIIIIIIIIIIIIIIIIIIIIIIIIIII..%% #=IIIIIIIIIIIIIIIIIIIIIIIIIIIII",
"IIIIIIIIIIIIIIIIIIIIIIIIIIII  =X #=IIIIIIIIIIIIIIIIIIIIIIIIIIIII",
"IIIIIIIIIIIIIIIIIIIIIIIIIII   #X  @IIIIIIIIIIIIIIIIIIIIIIIIIIIII",
"IIIIIIIIIIIIIIIIIIIIIIIIIII O =#.O.%IIIIIIIIIIIIIIIIIIIIIIIIIIII"
};
